<mxfile host="app.diagrams.net" modified="2024-06-05T11:55:58.006Z" agent="Mozilla/5.0 (Windows NT 10.0; Win64; x64) AppleWebKit/537.36 (KHTML, like Gecko) Chrome/121.0.0.0 Safari/537.36" etag="GUJWOfxm8i-Z8d-NBGei" version="24.4.14" type="device">
  <diagram name="Página-1" id="ViUKd8G1aNg1NZMjYCMn">
    <mxGraphModel dx="1481" dy="1987" grid="1" gridSize="10" guides="1" tooltips="1" connect="1" arrows="1" fold="1" page="1" pageScale="1" pageWidth="827" pageHeight="1169" math="0" shadow="0">
      <root>
        <mxCell id="0" />
        <mxCell id="1" parent="0" />
        <mxCell id="JOJnL8U-u6gUvtGGwrrx-1" value="&lt;h1&gt;COMPRA&lt;/h1&gt;" style="text;html=1;align=center;verticalAlign=middle;whiteSpace=wrap;rounded=0;" vertex="1" parent="1">
          <mxGeometry x="325" y="-100" width="350" height="80" as="geometry" />
        </mxCell>
        <mxCell id="JOJnL8U-u6gUvtGGwrrx-2" style="edgeStyle=orthogonalEdgeStyle;rounded=0;orthogonalLoop=1;jettySize=auto;html=1;exitX=0.5;exitY=0.5;exitDx=0;exitDy=0;exitPerimeter=0;entryX=0;entryY=0.5;entryDx=0;entryDy=0;" edge="1" parent="1" source="JOJnL8U-u6gUvtGGwrrx-3" target="JOJnL8U-u6gUvtGGwrrx-4">
          <mxGeometry relative="1" as="geometry" />
        </mxCell>
        <mxCell id="JOJnL8U-u6gUvtGGwrrx-3" value="Cliente" style="shape=umlActor;verticalLabelPosition=bottom;verticalAlign=top;html=1;outlineConnect=0;fillColor=#000000;strokeColor=#000000;" vertex="1" parent="1">
          <mxGeometry x="215" y="10" width="70" height="140" as="geometry" />
        </mxCell>
        <mxCell id="JOJnL8U-u6gUvtGGwrrx-4" value="PEDIDOS/COMPRAS" style="ellipse;whiteSpace=wrap;html=1;fillColor=#dae8fc;strokeColor=#6c8ebf;" vertex="1" parent="1">
          <mxGeometry x="365" y="40" width="120" height="80" as="geometry" />
        </mxCell>
        <mxCell id="JOJnL8U-u6gUvtGGwrrx-5" value="" style="edgeStyle=orthogonalEdgeStyle;rounded=0;orthogonalLoop=1;jettySize=auto;html=1;exitX=0.5;exitY=0.5;exitDx=0;exitDy=0;exitPerimeter=0;entryX=0;entryY=0.5;entryDx=0;entryDy=0;" edge="1" parent="1" source="JOJnL8U-u6gUvtGGwrrx-6" target="JOJnL8U-u6gUvtGGwrrx-47">
          <mxGeometry relative="1" as="geometry">
            <Array as="points" />
            <mxPoint x="720" y="80" as="targetPoint" />
          </mxGeometry>
        </mxCell>
        <mxCell id="JOJnL8U-u6gUvtGGwrrx-6" value="Banco de dados" style="shape=umlActor;verticalLabelPosition=bottom;verticalAlign=top;html=1;outlineConnect=0;fillColor=#000000;strokeColor=#000000;" vertex="1" parent="1">
          <mxGeometry x="575" y="10" width="70" height="140" as="geometry" />
        </mxCell>
        <mxCell id="JOJnL8U-u6gUvtGGwrrx-7" style="edgeStyle=orthogonalEdgeStyle;rounded=0;orthogonalLoop=1;jettySize=auto;html=1;exitX=1;exitY=0.5;exitDx=0;exitDy=0;entryX=0.5;entryY=0.5;entryDx=0;entryDy=0;entryPerimeter=0;" edge="1" parent="1" source="JOJnL8U-u6gUvtGGwrrx-4" target="JOJnL8U-u6gUvtGGwrrx-6">
          <mxGeometry relative="1" as="geometry" />
        </mxCell>
        <mxCell id="JOJnL8U-u6gUvtGGwrrx-9" value="&lt;h1&gt;LOGIN&lt;/h1&gt;" style="text;html=1;align=center;verticalAlign=middle;whiteSpace=wrap;rounded=0;fontFamily=Lucida Console;fontStyle=0" vertex="1" parent="1">
          <mxGeometry x="300" y="530" width="350" height="80" as="geometry" />
        </mxCell>
        <mxCell id="JOJnL8U-u6gUvtGGwrrx-10" value="" style="edgeStyle=orthogonalEdgeStyle;rounded=0;orthogonalLoop=1;jettySize=auto;html=1;exitX=0.5;exitY=0.5;exitDx=0;exitDy=0;exitPerimeter=0;" edge="1" parent="1" source="JOJnL8U-u6gUvtGGwrrx-11" target="JOJnL8U-u6gUvtGGwrrx-12">
          <mxGeometry relative="1" as="geometry" />
        </mxCell>
        <mxCell id="JOJnL8U-u6gUvtGGwrrx-11" value="Cliente" style="shape=umlActor;verticalLabelPosition=bottom;verticalAlign=top;html=1;outlineConnect=0;fillColor=#000000;strokeColor=#000000;" vertex="1" parent="1">
          <mxGeometry x="300" y="680" width="70" height="140" as="geometry" />
        </mxCell>
        <mxCell id="JOJnL8U-u6gUvtGGwrrx-12" value="LOGIN/ENTRAR" style="ellipse;whiteSpace=wrap;html=1;fillColor=#dae8fc;strokeColor=#6c8ebf;" vertex="1" parent="1">
          <mxGeometry x="470" y="710" width="120" height="80" as="geometry" />
        </mxCell>
        <mxCell id="JOJnL8U-u6gUvtGGwrrx-13" value="" style="edgeStyle=orthogonalEdgeStyle;rounded=0;orthogonalLoop=1;jettySize=auto;html=1;exitX=0.5;exitY=0.5;exitDx=0;exitDy=0;exitPerimeter=0;" edge="1" parent="1" source="JOJnL8U-u6gUvtGGwrrx-14" target="JOJnL8U-u6gUvtGGwrrx-15">
          <mxGeometry relative="1" as="geometry" />
        </mxCell>
        <mxCell id="JOJnL8U-u6gUvtGGwrrx-14" value="Cliente" style="shape=umlActor;verticalLabelPosition=bottom;verticalAlign=top;html=1;outlineConnect=0;fillColor=#000000;strokeColor=#000000;" vertex="1" parent="1">
          <mxGeometry x="300" y="930" width="70" height="140" as="geometry" />
        </mxCell>
        <mxCell id="JOJnL8U-u6gUvtGGwrrx-15" value="EDITAR CONTA" style="ellipse;whiteSpace=wrap;html=1;fillColor=#dae8fc;strokeColor=#6c8ebf;" vertex="1" parent="1">
          <mxGeometry x="470" y="960" width="120" height="80" as="geometry" />
        </mxCell>
        <mxCell id="JOJnL8U-u6gUvtGGwrrx-16" value="" style="edgeStyle=orthogonalEdgeStyle;rounded=0;orthogonalLoop=1;jettySize=auto;html=1;exitX=0.5;exitY=0.5;exitDx=0;exitDy=0;exitPerimeter=0;" edge="1" parent="1" source="JOJnL8U-u6gUvtGGwrrx-17" target="JOJnL8U-u6gUvtGGwrrx-18">
          <mxGeometry relative="1" as="geometry" />
        </mxCell>
        <mxCell id="JOJnL8U-u6gUvtGGwrrx-17" value="Cliente" style="shape=umlActor;verticalLabelPosition=bottom;verticalAlign=top;html=1;outlineConnect=0;fillColor=#000000;strokeColor=#000000;" vertex="1" parent="1">
          <mxGeometry x="300" y="1180" width="70" height="140" as="geometry" />
        </mxCell>
        <mxCell id="JOJnL8U-u6gUvtGGwrrx-18" value="CLIENTE COLOCOU E-MAIL" style="ellipse;whiteSpace=wrap;html=1;fillColor=#dae8fc;strokeColor=#6c8ebf;" vertex="1" parent="1">
          <mxGeometry x="470" y="1210" width="120" height="80" as="geometry" />
        </mxCell>
        <mxCell id="JOJnL8U-u6gUvtGGwrrx-19" value="" style="edgeStyle=orthogonalEdgeStyle;rounded=0;orthogonalLoop=1;jettySize=auto;html=1;exitX=0.5;exitY=0.5;exitDx=0;exitDy=0;exitPerimeter=0;" edge="1" parent="1" source="JOJnL8U-u6gUvtGGwrrx-20" target="JOJnL8U-u6gUvtGGwrrx-21">
          <mxGeometry relative="1" as="geometry" />
        </mxCell>
        <mxCell id="JOJnL8U-u6gUvtGGwrrx-20" value="Cliente" style="shape=umlActor;verticalLabelPosition=bottom;verticalAlign=top;html=1;outlineConnect=0;fillColor=#000000;strokeColor=#000000;" vertex="1" parent="1">
          <mxGeometry x="300" y="1430" width="70" height="140" as="geometry" />
        </mxCell>
        <mxCell id="JOJnL8U-u6gUvtGGwrrx-21" value="CLIENTE COLOCOU SENHA" style="ellipse;whiteSpace=wrap;html=1;fillColor=#dae8fc;strokeColor=#6c8ebf;" vertex="1" parent="1">
          <mxGeometry x="470" y="1460" width="120" height="80" as="geometry" />
        </mxCell>
        <mxCell id="JOJnL8U-u6gUvtGGwrrx-40" style="edgeStyle=orthogonalEdgeStyle;rounded=0;orthogonalLoop=1;jettySize=auto;html=1;exitX=0.5;exitY=0.5;exitDx=0;exitDy=0;exitPerimeter=0;entryX=0;entryY=0.5;entryDx=0;entryDy=0;" edge="1" source="JOJnL8U-u6gUvtGGwrrx-41" target="JOJnL8U-u6gUvtGGwrrx-42" parent="1">
          <mxGeometry relative="1" as="geometry" />
        </mxCell>
        <mxCell id="JOJnL8U-u6gUvtGGwrrx-41" value="Cliente" style="shape=umlActor;verticalLabelPosition=bottom;verticalAlign=top;html=1;outlineConnect=0;fillColor=#000000;strokeColor=#000000;" vertex="1" parent="1">
          <mxGeometry x="215" y="310" width="70" height="140" as="geometry" />
        </mxCell>
        <mxCell id="JOJnL8U-u6gUvtGGwrrx-42" value="MENU DADOS/ENDEREÇO" style="ellipse;whiteSpace=wrap;html=1;fillColor=#dae8fc;strokeColor=#6c8ebf;" vertex="1" parent="1">
          <mxGeometry x="365" y="340" width="120" height="80" as="geometry" />
        </mxCell>
        <mxCell id="JOJnL8U-u6gUvtGGwrrx-43" value="" style="edgeStyle=orthogonalEdgeStyle;rounded=0;orthogonalLoop=1;jettySize=auto;html=1;exitX=0.5;exitY=0.5;exitDx=0;exitDy=0;exitPerimeter=0;entryX=0;entryY=0.5;entryDx=0;entryDy=0;" edge="1" source="JOJnL8U-u6gUvtGGwrrx-44" target="JOJnL8U-u6gUvtGGwrrx-48" parent="1">
          <mxGeometry relative="1" as="geometry">
            <Array as="points" />
            <mxPoint x="720" y="380" as="targetPoint" />
          </mxGeometry>
        </mxCell>
        <mxCell id="JOJnL8U-u6gUvtGGwrrx-44" value="Banco de dados" style="shape=umlActor;verticalLabelPosition=bottom;verticalAlign=top;html=1;outlineConnect=0;fillColor=#000000;strokeColor=#000000;" vertex="1" parent="1">
          <mxGeometry x="575" y="310" width="70" height="140" as="geometry" />
        </mxCell>
        <mxCell id="JOJnL8U-u6gUvtGGwrrx-45" style="edgeStyle=orthogonalEdgeStyle;rounded=0;orthogonalLoop=1;jettySize=auto;html=1;exitX=1;exitY=0.5;exitDx=0;exitDy=0;entryX=0.5;entryY=0.5;entryDx=0;entryDy=0;entryPerimeter=0;" edge="1" source="JOJnL8U-u6gUvtGGwrrx-42" target="JOJnL8U-u6gUvtGGwrrx-44" parent="1">
          <mxGeometry relative="1" as="geometry" />
        </mxCell>
        <mxCell id="JOJnL8U-u6gUvtGGwrrx-47" value="ESTOQUE" style="ellipse;whiteSpace=wrap;html=1;fillColor=#dae8fc;strokeColor=#6c8ebf;" vertex="1" parent="1">
          <mxGeometry x="720" y="40" width="120" height="80" as="geometry" />
        </mxCell>
        <mxCell id="JOJnL8U-u6gUvtGGwrrx-48" value="ENTREGA" style="ellipse;whiteSpace=wrap;html=1;fillColor=#dae8fc;strokeColor=#6c8ebf;" vertex="1" parent="1">
          <mxGeometry x="720" y="340" width="120" height="80" as="geometry" />
        </mxCell>
      </root>
    </mxGraphModel>
  </diagram>
</mxfile>
